<?xml version="1.0" encoding="utf-8"?>
<!-- Generator: Adobe Illustrator 16.0.0, SVG Export Plug-In . SVG Version: 6.00 Build 0)  -->
<!DOCTYPE svg PUBLIC "-//W3C//DTD SVG 1.1//EN" "http://www.w3.org/Graphics/SVG/1.1/DTD/svg11.dtd">
<svg version="1.1" id="Layer_1" xmlns="http://www.w3.org/2000/svg" xmlns:xlink="http://www.w3.org/1999/xlink" x="0px" y="0px"
	 width="742.729px" height="198.492px" viewBox="0 0 742.729 198.492" enable-background="new 0 0 742.729 198.492"
	 xml:space="preserve">
<rect fill="#D2232A" width="742.729" height="198.492"/>
<g>
	<path fill="#FFFFFF" d="M166.985,151.04c0,1.229-0.703,2.456-3.335,3.335c-6.317,1.93-19.305,5.968-41.244,5.968
		c-44.755,0-60.551-19.481-60.551-66.169c0-46.86,15.796-66.166,60.551-66.166c21.938,0,34.927,4.21,41.244,6.144
		c2.632,0.875,3.335,2.281,3.335,3.507c0,0.352-0.176,0.703-0.176,1.23l-2.632,13.338c-0.352,1.406-1.228,2.105-2.808,2.105
		c-0.527,0-1.053,0-1.58-0.176c-5.265-1.402-18.956-5.089-32.118-5.089c-29.486,0-36.155,13.514-36.155,45.106
		c0,31.417,6.669,45.106,36.155,45.106c13.162,0,26.853-3.335,32.118-4.562c0.527-0.176,1.053-0.352,1.58-0.352
		c1.58,0,2.457,0.879,2.808,2.281l2.632,13.162C166.81,150.161,166.985,150.513,166.985,151.04z"/>
	<path fill="#FFFFFF" d="M249.144,159.112c-6.495,1.578-14.744,2.457-24.924,2.457c-20.358,0-42.823-2.633-42.823-30.011
		c0-22.466,14.392-25.449,27.205-27.379l30.539-4.917v-4.738c0-4.737-0.527-7.721-4.212-9.479
		c-2.459-1.227-6.669-1.754-12.461-1.754c-11.409,0-24.749,3.688-29.486,4.738c-0.352,0.176-0.879,0.352-1.229,0.352
		c-1.055,0-1.755-0.527-1.931-1.578l-2.632-12.112c-0.176-0.352-0.176-0.527-0.176-0.878c0-1.578,1.228-2.281,2.105-2.633
		c3.863-1.578,20.36-6.315,39.141-6.315c12.285,0,20.885,1.754,26.675,5.089c8.776,4.737,11.233,12.811,11.233,22.641v48.266
		C266.167,154.199,261.253,156.48,249.144,159.112z M239.315,115.412l-18.781,2.984c-6.669,1.051-12.461,2.281-12.461,12.811
		c0,12.287,9.829,13.338,16.849,13.338c6.493,0,12.109-1.227,14.393-1.93V115.412z"/>
	<path fill="#FFFFFF" d="M348.848,45.384c-0.176,1.578-0.527,2.281-1.931,2.281h-0.701c-2.283-0.352-7.723-1.23-12.461-1.23
		c-4.214,0-7.022,0.527-8.776,1.929c-1.756,1.582-2.457,3.863-2.457,7.55v11.233h22.29c1.578,0,2.808,1.05,2.808,2.632v14.041
		c0,1.578-1.23,2.633-2.808,2.633h-22.29v70.204c0,1.578-1.054,2.632-2.808,2.632h-21.413c-1.58,0-2.984-1.054-2.984-2.632V86.452
		h-13.516c-1.578,0-2.808-1.055-2.808-2.633V69.779c0-1.582,1.23-2.632,2.808-2.632h13.516V55.211
		c0-18.603,9.653-27.906,30.013-27.906c12.811,0,20.885,2.281,23.518,2.984c1.58,0.352,1.93,1.578,1.93,2.632v0.527L348.848,45.384z
		"/>
	<path fill="#FFFFFF" d="M444.683,120.15c0,2.28-0.874,4.562-4.21,4.562h-56.69c0,7.374,2.461,11.584,7.55,14.919
		c4.386,2.633,10.354,3.863,18.954,3.863c10.705,0,19.657-2.809,24.219-4.039c0.176-0.176,0.352-0.176,0.527-0.176
		c1.23,0,2.285,0.879,2.809,2.809l2.28,9.655c0.176,0.526,0.176,0.874,0.176,1.05c0,1.582-0.879,2.457-1.929,2.984
		c-5.617,2.281-17.729,5.792-32.648,5.792c-34.221,0-48.789-12.635-48.789-47.915c0-34.225,10.18-48.789,44.227-48.789
		c17.377,0,28.258,4.035,34.929,11.932c6.495,7.901,8.776,19.481,8.776,34.929C444.863,113.83,444.683,117.693,444.683,120.15z
		 M418.184,107.34c0-4.742-0.352-8.601-1.051-12.463c-2.109-9.127-6.847-12.111-15.623-12.111c-11.057,0-15.095,3.511-16.673,11.408
		c-0.875,4.39-0.875,8.952-1.055,14.216h34.401V107.34z"/>
	<path fill="#FFFFFF" d="M509.291,155.602c0,1.758-1.406,2.633-1.758,2.633c-1.577,0.702-6.671,2.632-16.849,2.632
		c-17.903,0-26.152-10.178-26.152-24.746V34.327c0-2.285,0.527-3.335,2.813-3.687l20.355-3.335h0.879c1.754,0,2.98,0.879,2.98,2.984
		v103.375c0,6.144,3.515,7.897,6.847,7.897c2.808,0,4.565-0.352,5.968-0.523c0.176,0,0.352-0.176,0.527-0.176
		c1.406,0,1.929,0.875,2.104,2.105l2.285,12.107V155.602z"/>
	<path fill="#FFFFFF" d="M587.748,159.112c-6.491,1.578-14.739,2.457-24.922,2.457c-20.36,0-42.825-2.633-42.825-30.011
		c0-22.466,14.396-25.449,27.207-27.379l30.538-4.917v-4.738c0-4.737-0.527-7.721-4.215-9.479
		c-2.456-1.227-6.667-1.754-12.459-1.754c-11.408,0-24.746,3.688-29.487,4.738c-0.352,0.176-0.875,0.352-1.227,0.352
		c-1.055,0-1.758-0.527-1.93-1.578l-2.632-12.112c-0.18-0.352-0.18-0.527-0.18-0.878c0-1.578,1.23-2.281,2.109-2.633
		c3.858-1.578,20.355-6.315,39.138-6.315c12.283,0,20.884,1.754,26.676,5.089c8.776,4.737,11.232,12.811,11.232,22.641v48.266
		C604.772,154.199,599.859,156.48,587.748,159.112z M577.922,115.412l-18.778,2.984c-6.671,1.051-12.463,2.281-12.463,12.811
		c0,12.287,9.83,13.338,16.849,13.338c6.495,0,12.111-1.227,14.393-1.93V115.412z"/>
	<path fill="#FFFFFF" d="M683.066,154.551c0,1.402-0.527,2.457-2.281,2.984c-2.456,0.699-10.354,3.155-22.118,3.155
		c-20.883,0-31.412-7.722-31.412-28.604V43.802c0-2.457,0.879-3.687,3.159-4.21l20.005-3.511h0.879c1.753,0,2.983,0.878,2.983,2.983
		v28.082h23.345c1.577,0,2.808,1.05,2.808,2.632v14.041c0,1.578-1.23,2.633-2.808,2.633h-23.345v44.403
		c0,6.847,2.285,10.705,11.233,10.705c5.269,0,9.83-0.875,12.463-1.402h0.703c1.226,0,1.753,0.879,2.104,1.93l2.281,11.408V154.551z
		"/>
</g>
</svg>
