<svg id="Layer_1" data-name="Layer 1" xmlns="http://www.w3.org/2000/svg" viewBox="0 0 127.77 31.5"><defs><style>.cls-1{fill:#009cde}.cls-2{fill:#003087}</style></defs><path class="cls-1" d="M98.4 6.93h-7a1 1 0 00-1 .83l-2.84 18a.58.58 0 00.57.68h3.61a.69.69 0 00.67-.58l.81-5.11a1 1 0 011-.82h2.23c4.62 0 7.29-2.24 8-6.68a5.38 5.38 0 00-.89-4.53c-1.04-1.17-2.81-1.79-5.16-1.79zm.81 6.58C98.82 16 96.9 16 95 16h-1l.75-4.7a.58.58 0 01.58-.5h.48c1.27 0 2.47 0 3.08.72a2.35 2.35 0 01.32 1.99z"/><path class="cls-2" d="M48.29 6.93h-7a1 1 0 00-1 .83l-2.84 18a.59.59 0 00.58.68h3.35a1 1 0 001-.82l.77-4.87a1 1 0 011-.82h2.23c4.62 0 7.3-2.24 8-6.68a5.38 5.38 0 00-.89-4.53c-1.08-1.17-2.85-1.79-5.2-1.79zm.81 6.58C48.72 16 46.79 16 44.93 16h-1.06l.74-4.7a.58.58 0 01.58-.5h.48c1.27 0 2.47 0 3.09.72a2.36 2.36 0 01.34 1.99zm20.19-.08h-3.37a.59.59 0 00-.58.5l-.14.94-.2-.34c-.73-1.06-2.35-1.41-4-1.41a7.73 7.73 0 00-7.51 6.76 6.35 6.35 0 001.25 5.17A5.26 5.26 0 0059 26.76a6.47 6.47 0 004.66-1.92l-.16.93a.59.59 0 00.58.68h3a1 1 0 001-.82l1.81-11.52a.58.58 0 00-.6-.68zM64.6 20a3.75 3.75 0 01-3.8 3.21 2.82 2.82 0 01-2.26-.91 2.88 2.88 0 01-.54-2.38 3.78 3.78 0 013.78-3.24 2.83 2.83 0 012.22.92 2.91 2.91 0 01.6 2.4z"/><path class="cls-1" d="M119.39 13.43H116a.59.59 0 00-.58.5l-.15.94-.23-.34c-.73-1.06-2.35-1.41-4-1.41a7.72 7.72 0 00-7.51 6.76 6.35 6.35 0 001.25 5.17 5.25 5.25 0 004.24 1.71 6.44 6.44 0 004.65-1.92l-.15.93a.59.59 0 00.58.68h3a1 1 0 001-.82l1.9-11.52a.59.59 0 00-.61-.68zM114.71 20a3.75 3.75 0 01-3.8 3.21 2.61 2.61 0 01-2.79-3.27 3.78 3.78 0 013.77-3.24 2.86 2.86 0 012.25.92 2.94 2.94 0 01.57 2.38z"/><path class="cls-2" d="M87.2 13.43h-3.38a1 1 0 00-.81.43l-4.66 6.87-2-6.6a1 1 0 00-.93-.7h-3.31a.59.59 0 00-.55.78l3.72 10.93-3.5 4.94a.58.58 0 00.48.92h3.38a1 1 0 00.8-.42l11.25-16.23a.59.59 0 00-.49-.92z"/><path class="cls-1" d="M123.36 7.43l-2.88 18.34a.58.58 0 00.57.68H124a1 1 0 001-.82l2.84-18a.59.59 0 00-.58-.68h-3.24a.58.58 0 00-.66.48zm-99.69.45c.38-2.42 0-4.06-1.3-5.54C20.93.7 18.34 0 15 0H5.38A1.38 1.38 0 004 1.16L0 26.6a.83.83 0 00.82 1h6l-.42 2.6a.74.74 0 00.72.84h5a1.2 1.2 0 001.19-1l.05-.25.95-6 .06-.33a1.2 1.2 0 011.19-1h.75c4.86 0 8.66-2 9.77-7.68.47-2.39.23-4.38-1-5.78a4.71 4.71 0 00-1.38-1"/><path d="M23.67 7.88c.38-2.42 0-4.06-1.3-5.54C20.93.7 18.34 0 15 0H5.38A1.38 1.38 0 004 1.16L0 26.6a.83.83 0 00.82 1h6l1.49-9.48v.3a1.38 1.38 0 011.36-1.16h2.83c5.55 0 9.9-2.26 11.17-8.78 0-.19.07-.38.09-.56" fill="#012169"/><path class="cls-2" d="M9.88 7.91a1.2 1.2 0 01.67-.9 1.11 1.11 0 01.52-.12h7.55a16.1 16.1 0 012.49.18l.64.12.6.16.28.08a7.21 7.21 0 011.05.45c.38-2.42 0-4.06-1.31-5.54C20.93.7 18.34 0 15 0H5.38A1.38 1.38 0 004 1.16L0 26.6a.83.83 0 00.82 1h6l1.49-9.48z"/></svg>