<svg xmlns="http://www.w3.org/2000/svg" viewBox="0 0 820.97 155.29"><defs><clipPath id="clip-path"><ellipse class="cls-1" cx="440.97" cy="77.9" rx="25.12" ry="5.88"/></clipPath><style>.cls-1{fill:none}.cls-6{fill:#231f20}</style></defs><g id="Laag_2" data-name="Laag 2"><ellipse class="cls-1" cx="440.86" cy="78.11" rx="26.54" ry="7"/><path d="M374.68 21.1a9.1 9.1 0 013.55.91c0-3.56-3.49-6.45-7.79-6.45s-7.78 2.67-7.78 6.23a8.61 8.61 0 003.55 1c1.73 0 6.71-1.69 8.47-1.69z"/><path d="M366.21 23.26a9.1 9.1 0 01-3.55-.91c0 3.56 3.48 6.45 7.78 6.45s7.79-2.74 7.79-6.3a9.15 9.15 0 00-3.55-.93c-1.68 0-6.68 1.69-8.47 1.69zm88.95 34.26a10.14 10.14 0 00-4 1c0-4 3.88-7.18 8.66-7.18s8.67 3 8.67 6.94a9.63 9.63 0 01-4 1.11c-1.83.01-7.38-1.87-9.33-1.87z"/><path d="M464.59 59.93a10.14 10.14 0 004-1c0 4-3.88 7.18-8.67 7.18s-8.66-3-8.66-7a10.1 10.1 0 014-1c1.82-.11 7.37 1.82 9.33 1.82zm-6.94-51.2a7.23 7.23 0 00-2.81.72c0-2.82 2.76-5.11 6.17-5.11s6.18 2.12 6.18 4.94a6.81 6.81 0 01-2.81.8c-1.38 0-5.33-1.35-6.73-1.35z"/><path d="M464.38 10.45a7.23 7.23 0 002.81-.72c0 2.82-2.77 5.11-6.18 5.11s-6.17-2.17-6.17-5a7.21 7.21 0 012.81-.74c1.35.01 5.35 1.35 6.73 1.35zm35.82 3.26a7.86 7.86 0 00-3.19.16c.62-3 4.1-4.91 7.78-4.17s6.2 3.65 5.58 6.7a7.64 7.64 0 01-3.21.23c-1.48-.3-5.45-2.63-6.96-2.92z"/><path d="M507.08 17a8 8 0 003.19-.17c-.62 3.05-4.1 4.92-7.78 4.17s-6.19-3.7-5.57-6.75a8 8 0 013.2-.18c1.48.34 5.45 2.66 6.96 2.93zm-35.74 28.18a10.7 10.7 0 00-3.79 2c-1-4.06 2.15-8.34 7.05-9.56s9.64.84 10.65 4.9a10.29 10.29 0 01-3.77 2.15c-1.97.53-8.14.01-10.14.51z"/><path d="M481.62 45.24a10.64 10.64 0 003.79-2c1 4.06-2.15 8.34-7.05 9.56s-9.66-.91-10.67-5a10.71 10.71 0 013.78-2.07c1.98-.51 8.14.01 10.15-.49zM452 34.08a10.68 10.68 0 00-2.93 2.81c-1.86-3.16 0-7.68 4.11-10.11s8.86-2 10.71 1.12a10.23 10.23 0 01-2.89 2.89c-1.66.98-7.32 2.29-9 3.29z"/><path d="M461.25 31.2a10.85 10.85 0 002.93-2.81c1.85 3.16 0 7.68-4.11 10.11s-8.9 2-10.75-1.18a10.74 10.74 0 012.91-2.83c1.67-.98 7.33-2.29 9.02-3.29zm21.84-8.36a10.85 10.85 0 00-4-.72c1.46-3.35 6.2-4.52 10.59-2.61s6.85 6 5.39 9.33a10.25 10.25 0 01-4-.64c-1.8-.77-6.19-4.58-7.98-5.36z"/><path d="M490.85 28.65a10.79 10.79 0 004 .72c-1.46 3.35-6.2 4.52-10.59 2.61s-6.82-6-5.36-9.39a10.78 10.78 0 014 .7c1.76.77 6.15 4.58 7.95 5.36zM479.79 7.47a10.76 10.76 0 00-3.46 2.12c-1.14-3.48 1.63-7.51 6.17-9S491.59.5 492.73 4a10.23 10.23 0 01-3.43 2.2c-1.83.58-7.65.66-9.51 1.27z"/><path d="M489.45 6.64a10.76 10.76 0 003.46-2.12c1.14 3.48-1.62 7.5-6.17 9s-9.11 0-10.25-3.45a10.75 10.75 0 013.45-2.14c1.84-.6 7.65-.68 9.51-1.29zm-64.22 53.55a11.27 11.27 0 013.87 2.34c1.27-4.21-1.82-8.86-6.9-10.39s-10.15.38-11.42 4.58a10.69 10.69 0 003.84 2.45c2.04.61 8.53.39 10.61 1.02z"/><path d="M414.45 59.72a11.11 11.11 0 01-3.87-2.34c-1.27 4.21 1.82 8.86 6.9 10.4s10.17-.46 11.44-4.67a11.1 11.1 0 00-3.86-2.36c-2.06-.62-8.53-.4-10.61-1.03zM383 40.91a9.17 9.17 0 013.66.09c-.79-3.47-4.84-5.5-9-4.54s-7 4.34-6.19 7.81a8.59 8.59 0 003.68.18c1.65-.38 6.13-3.15 7.85-3.54z"/><path d="M375.22 44.91a9 9 0 01-3.66-.09c.79 3.47 4.83 5.5 9 4.54s7-4.4 6.18-7.87a9 9 0 00-3.66-.12c-1.67.39-6.15 3.15-7.86 3.54zm25.44 4.45a11.49 11.49 0 014.44-.43c-1.5-3.94-6.68-5.73-11.59-4s-7.77 6.12-6.28 10.06a10.76 10.76 0 004.47-.34c1.98-.65 6.96-4.58 8.96-5.29z"/><path d="M391.89 55.19a11.32 11.32 0 01-4.43.44c1.49 3.94 6.68 5.72 11.59 4s7.74-6.19 6.25-10.14a11.48 11.48 0 00-4.44.41c-1.98.68-6.96 4.58-8.97 5.29zm6.39-45.72a9 9 0 013.41 1.33c.43-3.54-2.68-6.82-6.94-7.34s-8.05 1.71-8.48 5.24a8.65 8.65 0 003.4 1.42c1.72.21 6.87-.87 8.61-.65z"/><path d="M389.61 10.59a9 9 0 01-3.41-1.33c-.43 3.53 2.68 6.82 6.94 7.34s8.06-1.77 8.49-5.31a9.08 9.08 0 00-3.41-1.36c-1.71-.2-6.87.87-8.61.66zm36.67-1.41a8.16 8.16 0 013.09 1.2c.39-3.2-2.42-6.18-6.29-6.65s-7.29 1.55-7.68 4.75a7.79 7.79 0 003.08 1.29c1.52.23 6.22-.77 7.8-.59z"/><path d="M418.43 10.19A8.24 8.24 0 01415.34 9c-.39 3.2 2.42 6.18 6.29 6.65s7.3-1.61 7.69-4.81a8.22 8.22 0 00-3.09-1.23c-1.56-.2-6.23.78-7.8.58zm10.66 22.61a10.66 10.66 0 012.8 3.26c2.39-3.43 1-8.55-3.16-11.44s-9.29-2.65-11.68.78a10.24 10.24 0 002.75 3.34c1.66 1.16 7.59 2.88 9.29 4.06z"/><path d="M419.48 29.19a10.66 10.66 0 01-2.8-3.26c-2.39 3.43-1 8.55 3.16 11.43s9.32 2.6 11.72-.83a10.61 10.61 0 00-2.79-3.28c-1.67-1.16-7.6-2.88-9.29-4.06zM404 29a11.86 11.86 0 014.78 1.28c0-5-4.7-9-10.5-9s-10.5 3.74-10.5 8.74a11.42 11.42 0 004.79 1.39c2.29-.08 9.02-2.41 11.43-2.41z"/><path d="M392.53 32a12 12 0 01-4.79-1.27c0 5 4.7 9 10.5 9s10.5-3.84 10.5-8.83a11.84 11.84 0 00-4.74-1.28c-2.38 0-9.1 2.38-11.47 2.38zm43.79 42.19s1.33-10.5.58-14.75-5.16-11.25-11-15a51.2 51.2 0 00-12.66-5.58s8.58-.33 13.83 3.33 10.08 10.09 10.08 10.09-.91-8.59-.91-11.67 0-11 .5-12.25-.59-4-2.17-6.08-6.08-7.28-6.08-7.28 3.58 1.16 4.75 2.58l4.33 5.33s2.75-8.91 3.92-11.58a61 61 0 013.66-6.58S443 13 442.4 15.11a64 64 0 00-1.66 7.89 121.12 121.12 0 00-.84 12.25c2-6.67 6.09-12.25 7.34-13.42s8.16-5.67 8.16-5.67-4.58 5.92-6.83 8.75-5.92 10.7-6.57 14.28-.67 5.34-.34 7.17 1.59 4.75 1.59 5.83c1.83-2.41 5.25-7 7.33-8.16s4.17-2.67 7.08-2.5c-3.16 1.91-7.5 6.08-8.66 8.08s-3.17 4.67-3.75 8.25.66 15.92.66 15.92zm24.47 37.7c-5.08 5.29-12.7 8-20.2 8-8.23 0-15-3.1-18.89-7.78-8.52 1.48-14.07 3.87-14.07 6.58 0 4.48 11.06 9.54 33.73 9.54 18.82 0 35.15-5.06 35.15-9.54 0-2.83-6.27-5.35-15.72-6.8zm5.72-36.28a6.6 6.6 0 011.41 2.17 11.51 11.51 0 01.25 3.5c1.67.08 5.59.25 7.42 1.5s3.5 3.08 3.42 5.58a10.46 10.46 0 01-4.25 7.33 29.57 29.57 0 01-7.17 4.17c-.33.83-1.08 2.75-1.75 4.08a41.43 41.43 0 01-2.08 3.84c4.75-1.17 15-4.34 19.08-11.75s1.25-12.59.58-13.92-3-4.67-6.41-5.67a29.2 29.2 0 00-10.5-.83z"/><path d="M454.53 9.51a10.65 10.65 0 013.56-.7 5.7 5.7 0 013.12.64 4.78 4.78 0 002.92.72 9.11 9.11 0 003.3-.68m-89.1 12.68a12 12 0 00-4.31-.92 6.49 6.49 0 00-3.8.84 5.48 5.48 0 01-3.54.95 10.43 10.43 0 01-4-.89m69.03 14.38a18.25 18.25 0 00-3.84-3.86 9.75 9.75 0 00-4.33-2.06 8 8 0 01-4.14-1.78 15.52 15.52 0 01-3.54-3.63m-29.24 15.95a14.5 14.5 0 00-4.45.31 7.68 7.68 0 00-3.58 1.62 6.36 6.36 0 01-3.3 1.64 12.29 12.29 0 01-4.15.25m34.41 3.77a22.08 22.08 0 00-5.39 1.15 11.36 11.36 0 00-4.27 2.32 9.61 9.61 0 01-3.89 2.28 18.58 18.58 0 01-5 1m22-24.98a17 17 0 00-5.89-1.21c-3.07 0-4.25.57-5.19 1.11a7.69 7.69 0 01-4.84 1.26 14.41 14.41 0 01-5.48-1.19m14.27-19.42a12.84 12.84 0 00-4.29-1.52 6.87 6.87 0 00-4 .29 5.8 5.8 0 01-3.75.43 11.06 11.06 0 01-4-1.46m43.81 54a19.32 19.32 0 00-5-2.5 10.09 10.09 0 00-4.89-.62 8.52 8.52 0 01-4.59-.43 16.1 16.1 0 01-4.64-2.37m19.11-46.16a11.79 11.79 0 00-3.86-1.35 6.33 6.33 0 00-3.59.25 5.36 5.36 0 01-3.36.36 10 10 0 01-3.58-1.29m63.47 13.19a17.78 17.78 0 014.9 1.34 9.39 9.39 0 013.7 2.54 7.76 7.76 0 003.38 2.5 15.06 15.06 0 004.57 1.21m1.41-15.56a13 13 0 014 .16 6.78 6.78 0 013.23 1.37 5.74 5.74 0 003 1.39 10.92 10.92 0 003.7.12M476.17 10a17.19 17.19 0 014.38-2.53 9 9 0 014.38-.8 7.54 7.54 0 004.14-.61 14.48 14.48 0 004.05-2.39M450.59 58.8a16.84 16.84 0 015.14-.91 8.77 8.77 0 014.51.84 7.46 7.46 0 004.21 1 14.17 14.17 0 004.77-.9m-20.33-21.51a18.06 18.06 0 013.88-3.4 9.53 9.53 0 014.2-1.75 8.13 8.13 0 004-1.51 15.56 15.56 0 003.59-3.2M467.17 48a14.48 14.48 0 014.74-2.56c2.63-.76 3.79-.53 4.74-.27a6.62 6.62 0 004.48-.06 12.35 12.35 0 004.39-2.43" stroke="#fff" stroke-linejoin="round" stroke-linecap="round" fill="none"/><g clip-path="url(#clip-path)"><path d="M466.09 77.9c0 3.25-11.25 5.88-25.12 5.88s-25.13-2.63-25.13-5.88S427.09 72 441 72s25.09 2.66 25.09 5.9z"/><path d="M463.34 80.4c0-2.23-9.94-4-22.21-4s-22.21 1.81-22.21 4 9.95 4 22.21 4 22.21-1.77 22.21-4z" fill="#fff"/><path d="M421.15 75.83v8.38m2-8.38v8.38m2-8.38v8.38m2-8.38v8.38m2-8.38v8.38m2-8.38v8.38m2-8.38v8.38m2-8.38v8.38m2-8.38v8.38m2-8.38v8.38m2-8.38v8.38m2-8.38v8.38m2-8.38v8.38m2-8.38v8.38m2-8.38v8.38m2-8.38v8.38m2-8.38v8.38m2-8.38v8.38m2-8.38v8.38m2-8.38v8.38m2-8.38v8.38" stroke="#231f20" stroke-miterlimit="10" stroke-linecap="round" fill="none"/></g><path class="cls-6" d="M94.24 32.76a13.69 13.69 0 01.81 5.88 24.27 24.27 0 01-1.52 6.49 24 24 0 01-5 7.71A22.46 22.46 0 0194 68.36a45.58 45.58 0 01-4.46 18.06 83.05 83.05 0 01-11.67 18.15 109.41 109.41 0 01-16.18 15.93 95.15 95.15 0 01-18 11.36q-9.12 4.35-16.83 4.36a27.68 27.68 0 01-12.28-2.44 22.28 22.28 0 01-7.91-6.18 26.23 26.23 0 01-4.36-8.12 45.46 45.46 0 01-1.93-8.32 42.3 42.3 0 01-.4-6.69c.07-1.83.1-2.87.1-3.14 0-1 .1-2.5.3-4.67a49.8 49.8 0 011.52-7.81A83 83 0 015.59 78.5a79.8 79.8 0 016.5-12.07A114.17 114.17 0 0124.87 49.8a89.54 89.54 0 0118.46-15.42c2.29-1.48 4.73-2.9 7.3-4.26q3.45-1.62 7.81-3.34A56.55 56.55 0 0167.67 24a65 65 0 017.61-.81 31.21 31.21 0 017.6.5 16.6 16.6 0 016.6 2.84 15 15 0 014.76 6.23zm-16 19.88a2.92 2.92 0 00-2.36-.64 6.32 6.32 0 00-2.53 1 11.93 11.93 0 00-2.23 2 7.36 7.36 0 00-1.42 2.1c-.14.41-.38.55-.71.41a1.54 1.54 0 01-.81-.91 3 3 0 010-1.93A6.76 6.76 0 0169.7 52c2-2.7 4.43-4.16 7.2-4.36a13.63 13.63 0 016.39.71 39.19 39.19 0 005.78-6.19 7.89 7.89 0 001.73-5.78.41.41 0 00-.11-.3.41.41 0 01-.1-.31A3.64 3.64 0 0089.17 33a9.65 9.65 0 00-4-1.62 24.37 24.37 0 00-8.22.2 48.6 48.6 0 00-9.33 2.54 65 65 0 00-11.77 6 102.58 102.58 0 00-14.15 11 153.49 153.49 0 00-16.43 17.95 28.59 28.59 0 00-2 2.84q-1.62 2.43-3.85 6.39a94.22 94.22 0 00-4.46 9.13 80.69 80.69 0 00-3.86 11.26Q8.64 109 9.55 114.82a14 14 0 006 9.43 7.25 7.25 0 003.84 1.75 17.31 17.31 0 004.66 0 34.37 34.37 0 005-1c1.68-.48 3.27-1 4.76-1.52a9.73 9.73 0 012.74-1.22 82.36 82.36 0 004.77-1.83l9.94-6.49a70.62 70.62 0 008.52-6.49 98 98 0 0010.55-10 92.37 92.37 0 008.92-11.46 57.72 57.72 0 006.09-12.07 29.5 29.5 0 001.82-12.07 5.74 5.74 0 00-.71-3.25c-.47-.67-.91-1.28-1.32-1.82a77.57 77.57 0 01-8.21 7.5q-4.37 3.45-8 6.19t-6.32 4.28c-1.76 1.09-2.78 1.69-3.05 1.83l-4.25 2.63-.41.21q-10.76 6.49-16.13 8.42c-3.58 1.28-5.58 1.86-6 1.72a8.63 8.63 0 01-4.26-.91 12.43 12.43 0 01-2.74-2 6.16 6.16 0 01-1.52-2.23c-.27-.74-.48-1.32-.61-1.73q-.41-2 .51-1.92a12.65 12.65 0 003.14-.31 22.84 22.84 0 004.46-1.62c2.17-1 4.77-2.16 7.81-3.65S46.07 72 49.92 70s7.94-4.08 12.27-6.39l9-5.88a68.61 68.61 0 007.2-5.27zm64.62 47.47c0 .14 0 .2.1.2s.1.07.1.2c0 .82-1.22 2.2-3.65 4.16s-6.81 3.76-13.12 5.38l-2.84 3.24c-.94 1.09-2 2.17-3 3.25a45.27 45.27 0 01-5.88 5.68 30.44 30.44 0 01-6.09 4 15.43 15.43 0 01-6.89 1.72c-2.31 0-4-.61-5-1.83a6.69 6.69 0 01-1.53-4.46 11.35 11.35 0 014.15-8.65q4.16-3.75 12.07-4.77a87 87 0 0011.16-17.34q3.45-7.6 3.45-11.06c0-1.48-.41-2.23-1.22-2.23a6.81 6.81 0 00-3.14 1.12 31.26 31.26 0 00-4.06 2.84q-2.13 1.73-4.26 3.65c-1.42 1.29-2.67 2.4-3.75 3.35q-5.07 6.9-8.22 11.86t-5.07 8.42a48.87 48.87 0 00-2.84 5.78c-.61 1.56-1.18 2.94-1.72 4.16q-.21.62-.51 1.62c-.2.68-.44 1.42-.71 2.24s-.51 1.59-.71 2.33a7.42 7.42 0 00-.31 1.52 1.12 1.12 0 01-.81 1.12c-.54.2-1.28 0-2.23-.71a17.52 17.52 0 01-2.84-2.64 9.72 9.72 0 01-2-4.06 20.62 20.62 0 01-.4-4.06q0-2.84 2.33-7.5t5.17-9.33q3.25-5.68 7.81-13t9-14.6q4.45-7.32 8.11-13.7T119 47.76a27 27 0 002-5.37 15.73 15.73 0 00.41-3c0-.53.37-.91 1.11-1.11a4 4 0 012.74.51 22.05 22.05 0 014.61 4.21 8.68 8.68 0 011.79 7.2q-.39 3.45-3.59 9.53A195.2 195.2 0 01117 77.38a39.29 39.29 0 015.28-3.08 12.92 12.92 0 015.64-1.37 7.61 7.61 0 016.27 3.24c1.66 2.17 2.49 5.14 2.49 8.93a30.89 30.89 0 01-1.59 9.13 46.64 46.64 0 01-5.38 11 22.82 22.82 0 003.35-1.32c1.28-.61 2.53-1.22 3.75-1.82s2.3-1.12 3.25-1.53a6.59 6.59 0 011.82-.6 1.68 1.68 0 01.98.15zM100.94 120q3.24-3.24 6.08-6.7-5.07 1.63-6.59 4.06a11.66 11.66 0 00-1.52 2.84c0 .54.13.81.4.81a3.43 3.43 0 001-.4 1.38 1.38 0 00.63-.61z"/><path class="cls-6" d="M193.24 100.31a1.77 1.77 0 01.6 1.22 3.74 3.74 0 01-.71 1.93 37.43 37.43 0 01-2.53 3.34c-1.09 1.22-2.67 3-4.77 5.28a91.46 91.46 0 01-6.79 6.69 60 60 0 01-7.1 5.48c-2.31 1.49-4.26 2.09-5.89 1.82a18.55 18.55 0 01-6.79-2.84q-2.94-2-2.94-6.28a8.32 8.32 0 01.6-2.84c.41-1.09.75-2 1-2.64-.68.68-1.72 1.82-3.13 3.45s-2.92 3.24-4.53 4.87a46.1 46.1 0 01-4.83 4.26c-1.61 1.21-2.88 1.82-3.82 1.82a8.7 8.7 0 01-5.93-2.74c-1.94-1.82-2.92-4.42-2.92-7.81 0-.13.18-1.14.51-3a38.33 38.33 0 012.54-7.61 69.05 69.05 0 016.08-10.85 70.3 70.3 0 0111.16-12.58A49.47 49.47 0 01164 73a19 19 0 018.32-2.34 12.2 12.2 0 019.13 4.06 19.88 19.88 0 015.07 8.93 6.42 6.42 0 01.1 3.75 3.93 3.93 0 01-1.42 1.93 2 2 0 01-1.62.4c-.48-.13-.64-.47-.51-1a8.71 8.71 0 00-.5-5.28c-.75-2-1.93-3-3.55-3a13.94 13.94 0 00-4.77 1 17.8 17.8 0 00-5.78 3.85q-2.64 2.43-6.7 7t-7.91 9.43a105.17 105.17 0 00-6.59 9.23q-2.74 4.37-2.74 6.19c0 .68.13 1 .4 1a2.84 2.84 0 001.3-.61c.59-.4 1.82-1.42 3.69-3 .92-.94 2.69-2.67 5.3-5.17s5.27-5.14 8-7.91 5.11-5.31 7.2-7.61 3.08-3.65 3-4.06c-.41-1.48.16-2.36 1.72-2.63a8.73 8.73 0 015 .71 7.66 7.66 0 014 3.75c.87 1.76.37 3.92-1.53 6.49q-.81 1.22-3.44 4.56t-5.18 7a60.57 60.57 0 00-4.05 6.6c-1 2-1.05 3.14-.11 3.55.14 0 .17.07.11.2s0 .2.1.2c.94 0 2.5-.88 4.66-2.64a76.81 76.81 0 006.7-6.18l6.59-6.8q3.15-3.24 4.56-4.46c.01-.14.28-.14.69.17z"/><path class="cls-6" d="M213.93 87.33q-5.28 8.11-9.84 15.31a103.78 103.78 0 00-6.59 11.67c-.41 1-.85 2.06-1.32 3.35s-.44 2 .1 2.13 1.32-.17 2.74-1.32 3.11-2.6 5.07-4.36 3.92-3.62 5.88-5.58 3.62-3.69 5-5.18l.61-.6a12.11 12.11 0 011.83-2.24c.81-.81 1.55-.94 2.23-.4.67.27.88.88.61 1.82s-1.36 2.44-3.25 4.47a51.27 51.27 0 01-4.36 4.76q-3.15 3.15-6.7 6.29T199 123c-2.23 1.62-4 2.5-5.38 2.64a5.45 5.45 0 01-2.74.1c-.88-.2-1.72-.44-2.53-.71a4.23 4.23 0 01-1.73-1.42c-.33-.54-.57-.94-.71-1.22V122a5.58 5.58 0 01-1-2.94c-.13-1.29-.2-2.27-.2-3q0-2.84 2.33-7.5t5.17-9.33l2-3.45a49.61 49.61 0 014-7.2q2.32-3.56 4.76-7.41 2.84-4.67 5.89-9.73t5.88-9.74a63 63 0 01-6.39.4 20.26 20.26 0 01-4-.3 7 7 0 01-1.92-.61c-.34-.2-.38-.3-.11-.3a23.57 23.57 0 01-6.49-2.13 12.78 12.78 0 01-3.65-2.74 7.9 7.9 0 01-1.62-2.74 8.06 8.06 0 01-.41-2.33 2.48 2.48 0 01.1-.71 1.68 1.68 0 00.11-.51 1.44 1.44 0 011.42-1c.94 0 1.42.6 1.42 1.82l-.41.41c0 .27.34.54 1 .81a6.12 6.12 0 012 1.42h1.22l-.2.2a53.94 53.94 0 006.39.71c1.69.07 3.31.07 4.87 0s3.24-.2 5.07-.4 4.16-.51 7-.92q4-7.1 5.88-11.15a27.48 27.48 0 002-5.38 15.36 15.36 0 00.4-2.94c0-.54.37-.91 1.12-1.12a4 4 0 012.74.51 23 23 0 014.66 4.16c1.63 1.82 2.23 4.23 1.83 7.2a22.74 22.74 0 01-1.22 4.46c-.14.55-.27 1.05-.4 1.52s-.34 1-.61 1.73q17.64-1 24.75-.61a18.82 18.82 0 017.4 2 16.68 16.68 0 014.67 3.65A11.62 11.62 0 01275.8 61a12.18 12.18 0 01.61 3.24.79.79 0 00.2.61.18.18 0 00.2.2 2.16 2.16 0 01-.4 1.22c-.28.41-.88.54-1.83.41-1.76.27-2.5-.21-2.23-1.42v-.41c-.14-.13-.34-.3-.61-.51a7.13 7.13 0 00-1.52-.71 18.77 18.77 0 00-3.14-.71c-1.36-.2-3.12-.43-5.28-.71a116.69 116.69 0 00-13.08-.1q-8.43.32-18.16.51h-.2l-5.68 8.72L216 84.08c-.41.55-.78 1.09-1.12 1.63s-.68 1.08-.95 1.62z"/><path class="cls-6" d="M271.33 100.31a1.74 1.74 0 01.61 1.22 3.74 3.74 0 01-.71 1.93 39.53 39.53 0 01-2.53 3.34c-1.09 1.22-2.67 3-4.77 5.28a89.73 89.73 0 01-6.8 6.69 58.41 58.41 0 01-7.1 5.48c-2.3 1.49-4.26 2.09-5.88 1.82a18.48 18.48 0 01-6.79-2.84q-3-2-3-6.28a8.36 8.36 0 01.61-2.84c.41-1.09.74-2 1-2.64-.68.68-1.72 1.82-3.13 3.45s-2.92 3.24-4.53 4.87a46.1 46.1 0 01-4.83 4.26c-1.61 1.21-2.88 1.82-3.82 1.82a8.68 8.68 0 01-5.93-2.74c-1.94-1.82-2.92-4.42-2.92-7.81 0-.13.17-1.14.51-3a38.33 38.33 0 012.54-7.61A69.05 69.05 0 01220 93.82a70.3 70.3 0 0111.16-12.58 49.47 49.47 0 0111-8.21 19 19 0 018.32-2.34 12.2 12.2 0 019.13 4.06 19.88 19.88 0 015.07 8.93 6.42 6.42 0 01.1 3.75 3.93 3.93 0 01-1.42 1.93 2 2 0 01-1.62.4c-.48-.13-.65-.47-.51-1a8.64 8.64 0 00-.51-5.28c-.74-2-1.92-3-3.55-3a13.93 13.93 0 00-4.76 1 17.7 17.7 0 00-5.78 3.85q-2.64 2.43-6.7 7t-7.93 9.4a105.17 105.17 0 00-6.59 9.23q-2.74 4.37-2.74 6.19c0 .68.13 1 .4 1a2.82 2.82 0 001.29-.61c.6-.4 1.83-1.42 3.69-3 .93-.94 2.7-2.67 5.31-5.17s5.26-5.14 8-7.91 5.1-5.31 7.2-7.61 3.08-3.65 2.94-4.06c-.4-1.48.17-2.36 1.73-2.63a8.73 8.73 0 015 .71 7.64 7.64 0 014 3.75q1.32 2.64-1.52 6.49-.81 1.22-3.45 4.56t-5.17 7a62.43 62.43 0 00-4.06 6.6q-1.52 2.94-.1 3.55c.14 0 .17.07.1.2s0 .2.11.2c.94 0 2.5-.88 4.66-2.64a79.8 79.8 0 006.7-6.18l6.59-6.8q3.14-3.24 4.56-4.46c.01-.14.28-.14.68.17z"/><path class="cls-6" d="M290.4 87.33q-5.28 8.11-9.84 15.31a103.78 103.78 0 00-6.56 11.67c-.4 1-.85 2.06-1.32 3.35s-.44 2 .1 2.13 1.32-.17 2.74-1.32 3.11-2.6 5.07-4.36 3.92-3.62 5.89-5.58 3.61-3.69 5-5.18l.61-.6a12 12 0 011.82-2.24c.81-.81 1.55-.94 2.23-.4.68.27.88.88.61 1.82s-1.35 2.44-3.24 4.47a51.74 51.74 0 01-4.37 4.76c-2.09 2.1-4.33 4.2-6.69 6.29s-4.67 4-6.9 5.58-4 2.5-5.37 2.64a5.45 5.45 0 01-2.74.1c-.88-.2-1.73-.44-2.54-.71a4.19 4.19 0 01-1.72-1.42 12.7 12.7 0 01-.71-1.22V122a5.67 5.67 0 01-1-2.94c-.13-1.29-.2-2.27-.2-3q0-2.84 2.33-7.5t5.18-9.33l2-3.45a50.59 50.59 0 014-7.2q2.32-3.56 4.77-7.41 7.1-11.35 11.87-19.17a136.27 136.27 0 007.1-13 27.48 27.48 0 002-5.38 16.22 16.22 0 00.4-2.94c0-.54.37-.91 1.12-1.11a3.87 3.87 0 012.73.5 23.11 23.11 0 014.67 4.16 8.61 8.61 0 011.83 7.2c-.28 1.09-.51 2.23-.71 3.45a17.7 17.7 0 01-1.73 4.67c-.4.81-.78 1.49-1.11 2l-1.22 1.92c-.48.75-1.15 1.7-2 2.84s-2 2.81-3.35 5l-8.72 12.78c-.4.55-.78 1.09-1.11 1.63s-.65 1.07-.92 1.61z"/><path class="cls-6" d="M348.62 100.31a1.74 1.74 0 01.61 1.22 3.83 3.83 0 01-.71 1.93 38 38 0 01-2.52 3.34q-1.62 1.83-4.76 5.28a89.73 89.73 0 01-6.8 6.69 58.41 58.41 0 01-7.1 5.48c-2.3 1.49-4.26 2.09-5.88 1.82a18.6 18.6 0 01-6.8-2.84q-2.94-2-2.94-6.28a8.13 8.13 0 01.61-2.84c.41-1.09.74-2 1-2.64-.67.68-1.72 1.82-3.12 3.45s-2.92 3.24-4.53 4.87a46.1 46.1 0 01-4.83 4.26c-1.61 1.21-2.88 1.82-3.82 1.82a8.68 8.68 0 01-5.93-2.74q-2.93-2.73-2.92-7.81c0-.13.17-1.14.51-3a38.17 38.17 0 012.53-7.61 68.44 68.44 0 0117.25-23.43 49.47 49.47 0 0111-8.21 19 19 0 018.32-2.34 12.21 12.21 0 019.13 4.06 20 20 0 015.07 8.93 6.59 6.59 0 01.1 3.75 3.93 3.93 0 01-1.42 1.93 2 2 0 01-1.62.4c-.48-.13-.65-.47-.51-1a8.8 8.8 0 00-.51-5.28c-.74-2-1.93-3-3.55-3a14 14 0 00-4.77 1 17.9 17.9 0 00-5.78 3.85q-2.64 2.43-6.69 7t-7.91 9.43a107.57 107.57 0 00-6.6 9.23q-2.73 4.37-2.73 6.19c0 .68.13 1 .4 1a2.87 2.87 0 001.29-.61c.6-.4 1.83-1.42 3.69-3 .93-.94 2.7-2.67 5.31-5.17s5.26-5.14 8-7.91 5.1-5.31 7.2-7.61 3.07-3.65 2.94-4.06c-.4-1.48.17-2.36 1.73-2.63a8.73 8.73 0 015 .71 7.64 7.64 0 013.95 3.75q1.32 2.64-1.52 6.49-.81 1.22-3.45 4.56t-5.17 7a62.43 62.43 0 00-4.06 6.6c-1 2-1.05 3.14-.1 3.55.13 0 .17.07.1.2s0 .2.1.2c.95 0 2.5-.88 4.67-2.64a78.23 78.23 0 006.69-6.18l6.6-6.8q3.13-3.24 4.56-4.46c.01-.21.29-.21.69.1zM622 50.61a7.63 7.63 0 012.44 0h.56c.94.41 1.35.81 1.21 1.22a2.72 2.72 0 01-1 1.22 10.31 10.31 0 01-1.93 1.11l-1.52.71a22 22 0 00-5.78 6 29.41 29.41 0 00-3.55 7.4 34.33 34.33 0 00-1.52 7.4 20.36 20.36 0 00.3 6.19c.27 1.09.71 1.69 1.32 1.83a2.49 2.49 0 001.72-.21q3.66-1.41 6.8-5.88a51.74 51.74 0 005.38-9.74A73.83 73.83 0 00630 57.31a77.76 77.76 0 001.72-8.52 62.88 62.88 0 00.51-11.67c-.21-3.72-.78-6.25-1.73-7.61q-2.64-.6-7.71 1.83A104.76 104.76 0 00611.12 39q-7.41 5.37-19 16.94-1.81 2-6.49 7t-8.92 10.45q-2.24 3-4.67 7.1h-.2a131.79 131.79 0 00-7.1 12.07 77.65 77.65 0 00-5.48 13.19 34.11 34.11 0 00-1.62 12.47 15 15 0 004.46 9.94 20.64 20.64 0 006.29 1.63 25.54 25.54 0 007.61-.41 41.31 41.31 0 0010.44-3.65q4.88-2.43 11.06-6.29t12.17-8.32a126.83 126.83 0 0011.06-9.23 40.33 40.33 0 007.5-9l.61-1a1.72 1.72 0 011.42-1c.41 0 .61.34.61 1a7.15 7.15 0 01.51 2.94 14 14 0 01-.51 2.74q-.61 2.23-5.48 6.7t-11.26 9.43q-6.39 5-13.08 9.33a88.68 88.68 0 01-11.16 6.39 34.38 34.38 0 01-8.32 3.55 54.76 54.76 0 01-12.37 1.93 37.09 37.09 0 01-6.29-.61 20.79 20.79 0 01-6.79-2.54 21.38 21.38 0 01-6.09-5.37 21.72 21.72 0 01-4-8.73 55.76 55.76 0 01-1-6.79 37.37 37.37 0 01.61-9.94 63.07 63.07 0 014.16-13.29 99.17 99.17 0 019.63-17 142.56 142.56 0 0117-19.07q4.07-3.84 8.83-7.81A112.79 112.79 0 01595.7 36a109.44 109.44 0 0111.77-6.7 84.48 84.48 0 0112.88-5.07l2.64-.41a16 16 0 015.68.21 31.19 31.19 0 014.56 1.62c1.15.54 2.06 1 2.74 1.42a13.33 13.33 0 012 1.62c.4.68.88 1.42 1.42 2.23.27.68.57 1.53.91 2.54a15.72 15.72 0 01.71 3.14 38.89 38.89 0 01-1.22 13.29 77.13 77.13 0 01-5.17 14.51 72.29 72.29 0 01-8 13.18 37.54 37.54 0 01-9.94 9.33 15.14 15.14 0 01-5 2.23 9.24 9.24 0 01-5.38-.4 6.8 6.8 0 01-4.66-3.86 28 28 0 01-.81-3.24 15.11 15.11 0 01.1-5.28 30.17 30.17 0 011.32-4.86 35.27 35.27 0 015-9.13q2.73-3.45 4.16-5.07a33.09 33.09 0 015.17-4.37 17.39 17.39 0 014.42-2.12.8.8 0 00.51-.1.82.82 0 01.49-.1z"/><path class="cls-6" d="M655.44 119.89a37 37 0 01-7 4.56 24 24 0 01-6.29 2.13 30.79 30.79 0 01-5.18.51 21.83 21.83 0 01-4.26-.41l-1.62-.4a1.14 1.14 0 01-.81-.21 13.63 13.63 0 01-5.27-2.43 11.91 11.91 0 01-3.15-3.75 13.27 13.27 0 01-1.42-4.47 21.16 21.16 0 01-.1-4.56 24.28 24.28 0 011.93-8c1-2.23 1.66-3.69 1.92-4.36q1.42-2.44 4.37-6.9a68.18 68.18 0 017.2-9 51.64 51.64 0 019.53-8 23.66 23.66 0 0111.56-3.86 13.11 13.11 0 016.5 1 9.78 9.78 0 013.44 2.54 2.37 2.37 0 01.61 2.34c-.27.68-.88.82-1.82.41a5.7 5.7 0 00-3.55-.1 10.11 10.11 0 00-1.73.5c.41-.13.21 0-.61.31a22.77 22.77 0 00-3.85 2.45 47.74 47.74 0 00-6.39 6 95.41 95.41 0 00-8.42 11 106.68 106.68 0 00-6.9 11.81 27.07 27.07 0 00-2.63 8.15c-.41 3.12 1.15 4.68 4.66 4.68q3 0 6.9-3.67a57.43 57.43 0 007.2-8.36 82.09 82.09 0 005.58-8.87c1.49-2.79 2.16-4.59 2-5.41a9.57 9.57 0 01-3.75-1.32 3.15 3.15 0 01-1.53-3.57q.21-3.27 1.63-4.69a7.67 7.67 0 012.88-1.94 6 6 0 012.53-.4 5.86 5.86 0 01.92.1 10.45 10.45 0 014.66 1.22 11.43 11.43 0 014.26 3.87 43.38 43.38 0 016.39-2.55 21.41 21.41 0 016.39-1.12 11.33 11.33 0 014.87.81 6.12 6.12 0 012.33 1.82 4.48 4.48 0 01.71 2.64 2.39 2.39 0 01-.3.81 1 1 0 01-.91.61c-.41 0-.65-.13-.71-.4s-.14-.61-.21-1a2.36 2.36 0 00-.4-1 1.34 1.34 0 00-1.12-.41 6.56 6.56 0 01-1.42-.1 3.76 3.76 0 00-1.62.3c-.81.28-2.13.75-4 1.42s-4.7 1.7-8.62 3.05a7.31 7.31 0 00-.2 2 25.51 25.51 0 01-1.62 6.08 38 38 0 01-2.64 5.38c-.95 1.55-2.1 3.28-3.45 5.17a53.19 53.19 0 01-7.47 7.59zm1.42-28.5H658a2.36 2.36 0 001.3-.39 2.46 2.46 0 00-1.12-1.93 3.39 3.39 0 00-1.52-.5 1.74 1.74 0 00-1.82 1.43c0 .91.67 1.39 2.02 1.39z"/><path class="cls-6" d="M660.92 152.65a8.06 8.06 0 00-.4 1.42 1.29 1.29 0 01-.82 1c-.4.14-1.08-.2-2-1a14.74 14.74 0 01-3.7-4.77 10 10 0 01-.6-7.2 14.87 14.87 0 01.91-3.25c.47-1.21 1-2.57 1.72-4 1.09-2.17 2.84-5.62 5.28-10.35l8-15.62q4.36-8.52 8.82-17T685.87 77q-4.46-1.62-5.37-3.85a10.24 10.24 0 01-.92-3c0-.54.34-.82 1-.82s1.22.48 1.22 1.42v.82a3.87 3.87 0 001.72.71 13.29 13.29 0 002.94.3h1.22c.4-.67 1.25-2.16 2.53-4.46s2.88-4.9 4.77-7.81 4-6 6.19-9.23a86.16 86.16 0 017-8.93 49.69 49.69 0 017.2-6.69 11.5 11.5 0 016.79-2.64 5.54 5.54 0 014.87 2.33 12.59 12.59 0 012 5.78 31.69 31.69 0 01-.3 6.5 52 52 0 01-1.73 7.7c-.13.41-.37 1-.71 1.83s-.74 1.66-1.21 2.54a12.06 12.06 0 01-1.53 2.23 2.39 2.39 0 01-1.82.91c-1.09 0-1.76-.67-2-2a3.28 3.28 0 01.51-1.32 3.06 3.06 0 011.32-1.32 36 36 0 002.44-8 30.13 30.13 0 00.41-8.52c0-.81-.21-1.21-.61-1.21s-.71.27-1.32.81a28.53 28.53 0 00-3.15 4q-2.24 3.15-6 9.44t-9.43 17.24a32.87 32.87 0 017.1 1.62 19.11 19.11 0 014.05 2 5.93 5.93 0 011.93 2 4 4 0 01.51 1.42V80q0 .81-1 .81c-.67 0-1-.47-1-1.42a4.76 4.76 0 00-.49-1.49c-.2-.34-.78-.58-1.72-.71h-3.35c-1.82 0-4.84.13-9 .4l-.2.41q-4.73 8.31-10.9 19.47t-12.07 22.21q-5.88 11.05-10.65 20.29a109.24 109.24 0 00-6.19 13.49zm-.81 2.64a1.61 1.61 0 01.2-.61l.61-1.22a7.92 7.92 0 00-.81 1.83z"/><path class="cls-6" d="M690.54 152.65a8.6 8.6 0 00-.41 1.42 1.26 1.26 0 01-.81 1c-.41.14-1.08-.2-2-1a14.58 14.58 0 01-3.65-4.77 10 10 0 01-.61-7.2 15.45 15.45 0 01.91-3.25c.48-1.21 1-2.57 1.73-4q1.62-3.26 5.27-10.35t8-15.62q4.37-8.52 8.82-17t7.7-14.88q-4.47-1.62-5.38-3.85a10.12 10.12 0 01-.91-3c0-.54.34-.82 1-.82s1.22.48 1.22 1.42v.82a3.87 3.87 0 001.73.71 13.16 13.16 0 002.94.3h1.21c.41-.67 1.25-2.16 2.54-4.46s2.87-4.9 4.77-7.81 4-6 6.18-9.23a89 89 0 017-8.93A50.75 50.75 0 01745 35.4a11.53 11.53 0 016.8-2.64 5.56 5.56 0 014.87 2.33 12.71 12.71 0 012 5.78 31.76 31.76 0 01-.31 6.5 51.91 51.91 0 01-1.72 7.7c-.14.41-.38 1-.71 1.83s-.75 1.66-1.22 2.54a11.58 11.58 0 01-1.52 2.23 2.4 2.4 0 01-1.83.91c-1.08 0-1.76-.67-2-2a3.22 3.22 0 01.5-1.32 3.17 3.17 0 011.32-1.32 36.51 36.51 0 002.45-7.94 30.5 30.5 0 00.4-8.52c0-.81-.2-1.21-.61-1.21s-.71.27-1.32.81A29.56 29.56 0 00749 45q-2.24 3.15-6 9.44t-9.44 17.24a32.72 32.72 0 017.1 1.62 19.23 19.23 0 014.06 2 6 6 0 011.93 2 4.09 4.09 0 01.5 1.42V80c0 .54-.33.81-1 .81s-1-.47-1-1.42a5 5 0 00-.51-1.52c-.2-.34-.78-.58-1.73-.71h-3.34q-2.74 0-9 .4l-.2.41q-4.68 8.31-10.86 19.47t-12.07 22.21q-5.88 11.05-10.65 20.29a108.77 108.77 0 00-6.18 13.49zm-.81 2.64a1.61 1.61 0 01.2-.61l.61-1.22a7.92 7.92 0 00-.81 1.83z"/><path class="cls-6" d="M775.13 106.6q-2.24 2.24-6.19 5.68t-8.52 6.72a59.17 59.17 0 01-9.33 5.48 21 21 0 01-8.83 2.23 3.21 3.21 0 01-.81-.1 3.21 3.21 0 00-.81-.1h-.2q-7.31-.81-9.84-4.16a12 12 0 01-2.54-7.4 22.35 22.35 0 011.73-9.64c1.15-2.36 2.33-4.7 3.55-7a61.13 61.13 0 015.27-7.81 88.88 88.88 0 018.32-9.33 61 61 0 019.74-7.81q5.07-3.24 9.33-3.24a9.7 9.7 0 013.45.81c-.14-.14 0-.1.3.1l1.32.81a15 15 0 011.42 1q.6.51.81.51 3 3.45 3 6.7 0 4.26-3.75 8.41a55 55 0 01-9 7.92 100.46 100.46 0 01-10.75 6.69q-5.47 2.94-9.13 4.56c-.67 1.76-1.18 3.18-1.52 4.26a12.26 12.26 0 00-.51 3.66q0 5.48 5.28 5.47a11.8 11.8 0 002.94-.91 47.44 47.44 0 005.88-2.94 87.83 87.83 0 008.12-5.38 83.81 83.81 0 009.63-8.42c.14 0 .61-.47 1.42-1.42a5.8 5.8 0 012.44-1.82 3.43 3.43 0 011 .2.94.94 0 01.61 1 5.32 5.32 0 01-.91 2.13 12.5 12.5 0 01-2.92 3.14zm-25.56-8.93a25.93 25.93 0 00-1.73 2.74c-.47.88-1 1.8-1.52 2.74q7.3-5.48 11.87-9.53a80.54 80.54 0 007.1-7 20 20 0 003.34-4.87 8.45 8.45 0 00.82-2.94 3.15 3.15 0 00-.41-1.22 1.45 1.45 0 01-.2-.61c.13-.13-.24.07-1.12.61a37.29 37.29 0 00-4 3 63 63 0 00-6.24 6.41 97.68 97.68 0 00-7.91 10.67z"/><path class="cls-6" d="M817.12 106.6q-2.24 2.24-6.19 5.68t-8.52 6.72a59.17 59.17 0 01-9.33 5.48 21 21 0 01-8.83 2.23 3.21 3.21 0 01-.81-.1 3.21 3.21 0 00-.81-.1h-.2q-7.3-.81-9.84-4.16a12 12 0 01-2.54-7.4 22.35 22.35 0 011.73-9.64c1.15-2.36 2.33-4.7 3.55-7a61.13 61.13 0 015.27-7.81 88.88 88.88 0 018.32-9.33 61 61 0 019.74-7.81c3.37-2.16 6.49-3.24 9.33-3.24a9.7 9.7 0 013.45.81c-.14-.14 0-.1.3.1l1.32.81a15 15 0 011.42 1q.6.51.81.51 3 3.45 3 6.7 0 4.26-3.75 8.41a55 55 0 01-9 7.92 101.46 101.46 0 01-10.75 6.69q-5.47 2.94-9.13 4.56c-.68 1.76-1.18 3.18-1.52 4.26a12.26 12.26 0 00-.51 3.66q0 5.48 5.28 5.47a11.93 11.93 0 002.94-.91 47.44 47.44 0 005.88-2.94 87.83 87.83 0 008.12-5.38 83.81 83.81 0 009.63-8.42c.14 0 .61-.47 1.42-1.42a5.8 5.8 0 012.44-1.82 3.43 3.43 0 011 .2.94.94 0 01.61 1 5.32 5.32 0 01-.91 2.13 12.5 12.5 0 01-2.92 3.14zm-25.56-8.93a25.93 25.93 0 00-1.73 2.74c-.47.88-1 1.8-1.52 2.74q7.31-5.48 11.87-9.53a80.54 80.54 0 007.1-7 20 20 0 003.34-4.87 8.45 8.45 0 00.82-2.94 3.15 3.15 0 00-.41-1.22 1.45 1.45 0 01-.2-.61c.13-.13-.24.07-1.12.61a37.29 37.29 0 00-4 3 63 63 0 00-6.24 6.41 97.68 97.68 0 00-7.91 10.67z"/></g></svg>