<svg id="svg895" xmlns="http://www.w3.org/2000/svg" viewBox="0 0 640.01 395.64"><defs><style>.cls-3{fill:#f79e1b}</style></defs><path id="rect887" fill="#ff5f00" d="M224.84 42.31h190.42v311H224.84z"/><path id="path889" d="M244.45 197.84A197.5 197.5 0 01320 42.36c-85.89-67.49-210.22-52.59-277.72 33.3s-52.58 210.21 33.3 277.71a197.79 197.79 0 00244.41 0 197.5 197.5 0 01-75.54-155.53z" fill="#eb001b"/><path id="path891" class="cls-3" d="M621.11 320.4V314h2.75v-1.32h-6.54V314h2.58v6.37zm12.69 0v-7.69h-2l-2.3 5.5-2.31-5.5h-2v7.69h1.43v-5.82l2.14 5h1.48l2.15-5v5.82z"/><path id="path893" class="cls-3" d="M640 197.84c0 109.23-88.55 197.77-197.78 197.77A197.8 197.8 0 01320 353.31c85.89-67.49 100.79-191.83 33.3-277.71A197.53 197.53 0 00320 42.31c85.86-67.51 210.2-52.63 277.71 33.24A197.77 197.77 0 01640 197.78z"/></svg>