<svg xmlns="http://www.w3.org/2000/svg" viewBox="0 0 604.29 526.98"><defs><style>.cls-2{fill:#fff}</style></defs><g id="Layer_2" data-name="Layer 2"><path d="M67.18 296.62h96.85v160.82H67.18zm104.17-80.4a54.83 54.83 0 11-54.83-54.82 54.84 54.84 0 0154.83 54.82z"/><path d="M347.48 0H0v527h347.48v-.1c75.91-1 136-19.89 178.71-56.2 51.89-44.15 78.21-113.86 78.21-207.19 0-44.62-6.92-84.63-20.57-118.94-13.06-32.82-32.36-60.73-57.36-83-44-39.12-105.83-60.28-179-61.48zm-6.57 35c67.34 0 123.47 18.25 162.31 52.77 43.91 39 66.18 98.14 66.18 175.72C569.4 417.24 494.66 492 340.91 492H35V35z"/><path d="M331.35 457.62H208.5v-380h117.89c102.45 0 211.51 40.43 211.51 190.5 0 158.66-109.06 189.51-211.51 189.51z" fill="#cd0067"/></g><g id="Layer_3" data-name="Layer 3"><path class="cls-2" d="M187.33 175.7h33.73q11.4 0 17.39 1.75a30.64 30.64 0 0113.78 8.42 40 40 0 018.77 14.82q3 8.76 3 21.61a59.89 59.89 0 01-2.81 19.46 40.26 40.26 0 01-9.78 16.15 32.51 32.51 0 01-13 7.3q-6.12 1.94-16.34 1.93h-34.74zm18.43 15.5v60.44h13.82a50.64 50.64 0 0011.18-.87 17.09 17.09 0 007.47-3.8q3-2.67 4.85-8.8t1.92-16.72q0-10.57-1.87-16.24a20.87 20.87 0 00-5.25-8.84 17.64 17.64 0 00-8.57-4.29q-3.87-.87-15.18-.88z"/><path class="cls-2" d="M184.83 173.2v96.44h37.22c7 0 12.79-.69 17.09-2.05a35 35 0 0014-7.89 43 43 0 0010.41-17.13 63 63 0 002.94-20.27c0-8.8-1.05-16.35-3.13-22.42a42.53 42.53 0 00-9.36-15.73 33.16 33.16 0 00-14.88-9.1c-4.27-1.24-10.19-1.85-18.1-1.85zm36.23 5c7.33 0 12.95.56 16.69 1.65a28.19 28.19 0 0112.66 7.74 37.64 37.64 0 018.18 13.9c1.9 5.56 2.86 12.56 2.86 20.81a58 58 0 01-2.67 18.64 38.13 38.13 0 01-9.16 15.18 30.25 30.25 0 01-12 6.71c-3.8 1.2-9 1.81-15.57 1.81h-32.22V178.2z"/><path class="cls-2" d="M203.26 188.7v65.44h16.32a52.09 52.09 0 0011.8-.95 19.72 19.72 0 008.53-4.36c2.34-2.11 4.16-5.36 5.56-9.93 1.33-4.37 2-10.07 2-17.45s-.65-13-2-17a23.5 23.5 0 00-5.91-9.87 20.23 20.23 0 00-9.75-4.92c-2.77-.62-7.92-.93-15.71-.93zm10.82 5c9.11 0 13 .45 14.64.82a15.24 15.24 0 017.39 3.67 18.47 18.47 0 014.59 7.81c1.16 3.5 1.75 8.7 1.75 15.45s-.59 12.15-1.76 16c-1.11 3.62-2.5 6.21-4.13 7.68a14.79 14.79 0 01-6.4 3.23 49.54 49.54 0 01-10.58.79h-11.32V193.7zm70.73 73.44V175.7h67.69v15.5h-49.25v20.25h45.81V227h-45.81v24.69h51v15.5z"/><path class="cls-2" d="M282.31 173.2v96.44h74.44v-20.5h-51v-19.69h45.81V209h-45.81v-15.3H355v-20.5zm67.69 5v10.5h-49.25V214h45.81v10.5h-45.81v29.69h51v10.5h-64.44V178.2zm107.5 88.94h-20.08l-8-20.75h-36.51l-7.57 20.75h-19.59l35.53-91.44h19.66zm-34-36.25L410.91 197l-12.35 33.87z"/><path class="cls-2" d="M399.57 173.2l-37.47 96.44h25l7.57-20.75h33.06l8 20.75h25.49l-38.59-96.44zm19.67 5c1.17 2.92 32.07 80.2 34.57 86.44h-14.68l-8-20.75h-40s-6.55 18-7.57 20.75H369.4c2.41-6.2 32.44-83.47 33.59-86.44z"/><path class="cls-2" d="M395 233.39h32.13l-16.23-43.61zm15.95-29.14l9 24.14h-17.82zm61.98 62.89v-90.69h18.43v75.19h45.94v15.5z"/><path class="cls-2" d="M470.43 174v95.69h69.37v-20.5h-45.94V174zm18.43 5v75.19h45.94v10.5h-59.37V179z"/></g></svg>